<svg xmlns="http://www.w3.org/2000/svg" viewBox="0 0 800 460">
  <defs>
    <!-- Gradients -->
    <linearGradient id="bgGradient" x1="0%" y1="0%" x2="100%" y2="100%">
      <stop offset="0%" style="stop-color:#0f0f23"/>
      <stop offset="50%" style="stop-color:#1a1a3e"/>
      <stop offset="100%" style="stop-color:#0d0d1a"/>
    </linearGradient>

    <linearGradient id="accentGradient" x1="0%" y1="0%" x2="100%" y2="0%">
      <stop offset="0%" style="stop-color:#6366f1"/>
      <stop offset="50%" style="stop-color:#8b5cf6"/>
      <stop offset="100%" style="stop-color:#a855f7"/>
    </linearGradient>

    <linearGradient id="titleGradient" x1="0%" y1="0%" x2="100%" y2="0%">
      <stop offset="0%" style="stop-color:#e0e0ff"/>
      <stop offset="50%" style="stop-color:#ffffff"/>
      <stop offset="100%" style="stop-color:#c0c0ff"/>
    </linearGradient>

    <linearGradient id="rustGradient" x1="0%" y1="0%" x2="100%" y2="0%">
      <stop offset="0%" style="stop-color:#dea584"/>
      <stop offset="100%" style="stop-color:#ce422b"/>
    </linearGradient>

    <linearGradient id="goGradient" x1="0%" y1="0%" x2="100%" y2="0%">
      <stop offset="0%" style="stop-color:#00add8"/>
      <stop offset="100%" style="stop-color:#007d9c"/>
    </linearGradient>

    <linearGradient id="reactGradient" x1="0%" y1="0%" x2="100%" y2="0%">
      <stop offset="0%" style="stop-color:#61dafb"/>
      <stop offset="100%" style="stop-color:#21a1c4"/>
    </linearGradient>

    <linearGradient id="flutterGradient" x1="0%" y1="0%" x2="100%" y2="0%">
      <stop offset="0%" style="stop-color:#42a5f5"/>
      <stop offset="100%" style="stop-color:#0288d1"/>
    </linearGradient>

    <linearGradient id="csharpGradient" x1="0%" y1="0%" x2="100%" y2="0%">
      <stop offset="0%" style="stop-color:#68217a"/>
      <stop offset="100%" style="stop-color:#953dac"/>
    </linearGradient>

    <linearGradient id="pythonGradient" x1="0%" y1="0%" x2="100%" y2="0%">
      <stop offset="0%" style="stop-color:#3776ab"/>
      <stop offset="100%" style="stop-color:#ffd43b"/>
    </linearGradient>

    <!-- Glow filter -->
    <filter id="glow" x="-50%" y="-50%" width="200%" height="200%">
      <feGaussianBlur stdDeviation="3" result="coloredBlur"/>
      <feMerge>
        <feMergeNode in="coloredBlur"/>
        <feMergeNode in="SourceGraphic"/>
      </feMerge>
    </filter>

    <!-- Title glow -->
    <filter id="titleGlow" x="-50%" y="-50%" width="200%" height="200%">
      <feGaussianBlur stdDeviation="3" result="blur"/>
      <feFlood flood-color="#8b5cf6" flood-opacity="0.4"/>
      <feComposite in2="blur" operator="in"/>
      <feMerge>
        <feMergeNode/>
        <feMergeNode in="SourceGraphic"/>
      </feMerge>
    </filter>

    <!-- Subtle shadow -->
    <filter id="shadow" x="-20%" y="-20%" width="140%" height="140%">
      <feDropShadow dx="0" dy="2" stdDeviation="3" flood-color="#000" flood-opacity="0.3"/>
    </filter>
  </defs>

  <!-- Background -->
  <rect width="800" height="460" fill="url(#bgGradient)"/>

  <!-- Decorative grid pattern -->
  <g opacity="0.05">
    <pattern id="grid" width="40" height="40" patternUnits="userSpaceOnUse">
      <path d="M 40 0 L 0 0 0 40" fill="none" stroke="#fff" stroke-width="0.5"/>
    </pattern>
    <rect width="800" height="460" fill="url(#grid)"/>
  </g>

  <!-- Decorative circles -->
  <circle cx="650" cy="80" r="120" fill="#6366f1" opacity="0.08"/>
  <circle cx="100" cy="380" r="100" fill="#8b5cf6" opacity="0.06"/>
  <circle cx="750" cy="400" r="80" fill="#a855f7" opacity="0.05"/>

  <!-- Main Logo Area -->
  <g transform="translate(400, 100)">
    <!-- Logo symbol - hexagon with circuit pattern -->
    <g filter="url(#glow)">
      <polygon points="0,-45 39,-22.5 39,22.5 0,45 -39,22.5 -39,-22.5"
               fill="none" stroke="url(#accentGradient)" stroke-width="2.5"/>
      <!-- Inner circuit lines -->
      <path d="M 0,-25 L 0,0 M -20,12 L 0,0 L 20,12"
            fill="none" stroke="url(#accentGradient)" stroke-width="1.5" stroke-linecap="round"/>
      <!-- Nodes -->
      <circle cx="0" cy="-25" r="3" fill="#8b5cf6"/>
      <circle cx="-20" cy="12" r="3" fill="#6366f1"/>
      <circle cx="20" cy="12" r="3" fill="#a855f7"/>
      <circle cx="0" cy="0" r="4" fill="#fff"/>
    </g>
  </g>

  <!-- Title "K1S0" as embedded paths (futuristic geometric style) -->
  <g transform="translate(400, 185)" filter="url(#titleGlow)">
    <g fill="url(#titleGradient)">
      <!-- K -->
      <g transform="translate(-95, -25)">
        <rect x="0" y="0" width="8" height="50"/>
        <polygon points="8,25 8,18 32,0 42,0 18,22 18,28 42,50 32,50 8,32"/>
      </g>
      <!-- 1 -->
      <g transform="translate(-40, -25)">
        <polygon points="8,0 18,0 18,50 10,50 10,10 0,15 0,7"/>
      </g>
      <!-- S -->
      <g transform="translate(0, -25)">
        <path d="M32,0 L8,0 C3,0 0,4 0,10 L0,15 C0,21 3,25 8,25 L24,25 C27,25 28,27 28,30 L28,35 C28,38 27,40 24,40 L0,40 L0,50 L24,50 C31,50 36,46 36,40 L36,35 C36,29 31,25 24,25 L12,25 C9,25 8,23 8,20 L8,15 C8,12 9,10 12,10 L36,10 L36,0 Z"/>
      </g>
      <!-- 0 -->
      <g transform="translate(55, -25)">
        <path d="M8,0 L28,0 C34,0 38,5 38,12 L38,38 C38,45 34,50 28,50 L8,50 C2,50 0,45 0,38 L0,12 C0,5 2,0 8,0 Z M10,10 C9,10 8,11 8,13 L8,37 C8,39 9,40 10,40 L26,40 C27,40 30,39 30,37 L30,13 C30,11 27,10 26,10 Z"/>
      </g>
    </g>
  </g>

  <!-- Tagline -->
  <text x="400" y="225" text-anchor="middle" font-family="system-ui, -apple-system, sans-serif"
        font-size="16" fill="#a5a5c0" letter-spacing="3">
    UNIFIED MICROSERVICES PLATFORM
  </text>

  <!-- Accent line -->
  <rect x="300" y="240" width="200" height="2" rx="1" fill="url(#accentGradient)" opacity="0.6"/>

  <!-- Feature Cards -->
  <g transform="translate(95, 280)">
    <!-- Card 1: Scaffold -->
    <g filter="url(#shadow)">
      <rect x="0" y="0" width="180" height="85" rx="8" fill="#1e1e3f" stroke="#2d2d5a" stroke-width="1"/>
      <text x="90" y="30" text-anchor="middle" font-family="system-ui, sans-serif" font-size="11" fill="#6366f1" font-weight="600">
        SCAFFOLD
      </text>
      <text x="90" y="50" text-anchor="middle" font-family="system-ui, sans-serif" font-size="13" fill="#e0e0e8">
        Service Generation
      </text>
      <text x="90" y="70" text-anchor="middle" font-family="system-ui, sans-serif" font-size="10" fill="#8888a0">
        6 Templates
      </text>
    </g>
  </g>

  <g transform="translate(310, 280)">
    <!-- Card 2: Lint -->
    <g filter="url(#shadow)">
      <rect x="0" y="0" width="180" height="85" rx="8" fill="#1e1e3f" stroke="#2d2d5a" stroke-width="1"/>
      <text x="90" y="30" text-anchor="middle" font-family="system-ui, sans-serif" font-size="11" fill="#8b5cf6" font-weight="600">
        LINT
      </text>
      <text x="90" y="50" text-anchor="middle" font-family="system-ui, sans-serif" font-size="13" fill="#e0e0e8">
        Convention Enforce
      </text>
      <text x="90" y="70" text-anchor="middle" font-family="system-ui, sans-serif" font-size="10" fill="#8888a0">
        19 Rules + Auto-fix
      </text>
    </g>
  </g>

  <g transform="translate(525, 280)">
    <!-- Card 3: Upgrade -->
    <g filter="url(#shadow)">
      <rect x="0" y="0" width="180" height="85" rx="8" fill="#1e1e3f" stroke="#2d2d5a" stroke-width="1"/>
      <text x="90" y="30" text-anchor="middle" font-family="system-ui, sans-serif" font-size="11" fill="#a855f7" font-weight="600">
        UPGRADE
      </text>
      <text x="90" y="50" text-anchor="middle" font-family="system-ui, sans-serif" font-size="13" fill="#e0e0e8">
        Safe Templates
      </text>
      <text x="90" y="70" text-anchor="middle" font-family="system-ui, sans-serif" font-size="10" fill="#8888a0">
        Managed/Protected
      </text>
    </g>
  </g>

  <!-- Tech Stack: Backend -->
  <g transform="translate(400, 398)">
    <text x="-220" y="5" font-family="system-ui, sans-serif" font-size="9" fill="#666688" font-weight="600" letter-spacing="1">
      BACKEND
    </text>

    <g transform="translate(-100, 0)">
      <rect x="-25" y="-12" width="50" height="24" rx="4" fill="#2a2a4a" stroke="#3a3a5a" stroke-width="1"/>
      <text x="0" y="5" text-anchor="middle" font-family="system-ui, sans-serif" font-size="11" fill="url(#rustGradient)" font-weight="600">Rust</text>
    </g>
    <g transform="translate(-20, 0)">
      <rect x="-25" y="-12" width="50" height="24" rx="4" fill="#2a2a4a" stroke="#3a3a5a" stroke-width="1"/>
      <text x="0" y="5" text-anchor="middle" font-family="system-ui, sans-serif" font-size="11" fill="url(#goGradient)" font-weight="600">Go</text>
    </g>
    <g transform="translate(60, 0)">
      <rect x="-25" y="-12" width="50" height="24" rx="4" fill="#2a2a4a" stroke="#3a3a5a" stroke-width="1"/>
      <text x="0" y="5" text-anchor="middle" font-family="system-ui, sans-serif" font-size="11" fill="url(#csharpGradient)" font-weight="600">C#</text>
    </g>
    <g transform="translate(140, 0)">
      <rect x="-28" y="-12" width="56" height="24" rx="4" fill="#2a2a4a" stroke="#3a3a5a" stroke-width="1"/>
      <text x="0" y="5" text-anchor="middle" font-family="system-ui, sans-serif" font-size="11" fill="url(#pythonGradient)" font-weight="600">Python</text>
    </g>
  </g>

  <!-- Tech Stack: Frontend -->
  <g transform="translate(400, 428)">
    <text x="-220" y="5" font-family="system-ui, sans-serif" font-size="9" fill="#666688" font-weight="600" letter-spacing="1">
      FRONTEND
    </text>

    <g transform="translate(-100, 0)">
      <rect x="-25" y="-12" width="50" height="24" rx="4" fill="#2a2a4a" stroke="#3a3a5a" stroke-width="1"/>
      <text x="0" y="5" text-anchor="middle" font-family="system-ui, sans-serif" font-size="11" fill="url(#reactGradient)" font-weight="600">React</text>
    </g>
    <g transform="translate(-20, 0)">
      <rect x="-28" y="-12" width="56" height="24" rx="4" fill="#2a2a4a" stroke="#3a3a5a" stroke-width="1"/>
      <text x="0" y="5" text-anchor="middle" font-family="system-ui, sans-serif" font-size="11" fill="url(#flutterGradient)" font-weight="600">Flutter</text>
    </g>
  </g>

  <!-- Version badge -->
  <g transform="translate(720, 30)">
    <rect x="0" y="0" width="60" height="22" rx="11" fill="#2a2a4a" stroke="#6366f1" stroke-width="1"/>
    <text x="30" y="15" text-anchor="middle" font-family="monospace" font-size="10" fill="#8b5cf6">
      v0.1.0
    </text>
  </g>

</svg>
