<?xml version="1.0" encoding="UTF-8"?>
<!DOCTYPE svg PUBLIC "-//W3C//DTD SVG 1.1//EN" "http://www.w3.org/Graphics/SVG/1.1/DTD/svg11.dtd">
<svg xmlns="http://www.w3.org/2000/svg" style="background: transparent; background-color: transparent; color-scheme: light dark;" xmlns:xlink="http://www.w3.org/1999/xlink" version="1.1" width="802px" height="502px" viewBox="0 0 802 502"><defs/><g><g data-cell-id="0"><g data-cell-id="1"><g data-cell-id="dc"><g transform="translate(0.5,0.5)"><path d="M 800 30 L 800 13.5 Q 800 0 786.5 0 L 13.5 0 Q 0 0 0 13.5 L 0 30" fill="#f5f5f5" stroke="#666666" stroke-miterlimit="10" pointer-events="all" style="fill: light-dark(rgb(245, 245, 245), rgb(26, 26, 26)); stroke: light-dark(rgb(102, 102, 102), rgb(149, 149, 149));"/><path d="M 0 30 L 0 486.5 Q 0 500 13.5 500 L 786.5 500 Q 800 500 800 486.5 L 800 30" fill="none" stroke="#666666" stroke-miterlimit="10" pointer-events="none" style="stroke: light-dark(rgb(102, 102, 102), rgb(149, 149, 149));"/><path d="M 0 30 L 800 30" fill="none" stroke="#666666" stroke-miterlimit="10" pointer-events="none" style="stroke: light-dark(rgb(102, 102, 102), rgb(149, 149, 149));"/></g><g><g fill="#000000" font-family="Helvetica" font-weight="bold" text-anchor="middle" font-size="14px" style="fill: light-dark(rgb(0, 0, 0), rgb(255, 255, 255));"><text x="400" y="21">オンプレミス データセンター</text></g></g><g data-cell-id="dev"><g transform="translate(0.5,0.5)"><path d="M 250 76 L 250 61.7 Q 250 50 238.3 50 L 31.7 50 Q 20 50 20 61.7 L 20 76" fill="#d5e8d4" stroke="#82b366" stroke-miterlimit="10" pointer-events="all" style="fill: light-dark(rgb(213, 232, 212), rgb(31, 47, 30)); stroke: light-dark(rgb(130, 179, 102), rgb(68, 110, 44));"/><path d="M 20 76 L 20 198.3 Q 20 210 31.7 210 L 238.3 210 Q 250 210 250 198.3 L 250 76" fill="none" stroke="#82b366" stroke-miterlimit="10" pointer-events="none" style="stroke: light-dark(rgb(130, 179, 102), rgb(68, 110, 44));"/><path d="M 20 76 L 250 76" fill="none" stroke="#82b366" stroke-miterlimit="10" pointer-events="none" style="stroke: light-dark(rgb(130, 179, 102), rgb(68, 110, 44));"/></g><g><g fill="#000000" font-family="Helvetica" font-weight="bold" text-anchor="middle" font-size="12px" style="fill: light-dark(rgb(0, 0, 0), rgb(255, 255, 255));"><text x="135" y="68">dev クラスタ (Kubernetes)</text></g></g><g data-cell-id="dev-master"><g transform="translate(0.5,0.5)"><rect x="30" y="86" width="200" height="24" fill="none" stroke="none" pointer-events="all"/></g><g><g fill="#000000" font-family="Helvetica" font-size="11px" style="fill: light-dark(rgb(0, 0, 0), rgb(255, 255, 255));"><text x="40" y="102.5">Master x1</text></g></g></g><g data-cell-id="dev-worker"><g transform="translate(0.5,0.5)"><rect x="30" y="114" width="200" height="24" fill="none" stroke="none" pointer-events="all"/></g><g><g fill="#000000" font-family="Helvetica" font-size="11px" style="fill: light-dark(rgb(0, 0, 0), rgb(255, 255, 255));"><text x="40" y="130.5">Worker x2</text></g></g></g></g><g data-cell-id="stg"><g transform="translate(0.5,0.5)"><path d="M 510 76 L 510 61.7 Q 510 50 498.3 50 L 291.7 50 Q 280 50 280 61.7 L 280 76" fill="#d5e8d4" stroke="#82b366" stroke-miterlimit="10" pointer-events="all" style="fill: light-dark(rgb(213, 232, 212), rgb(31, 47, 30)); stroke: light-dark(rgb(130, 179, 102), rgb(68, 110, 44));"/><path d="M 280 76 L 280 198.3 Q 280 210 291.7 210 L 498.3 210 Q 510 210 510 198.3 L 510 76" fill="none" stroke="#82b366" stroke-miterlimit="10" pointer-events="none" style="stroke: light-dark(rgb(130, 179, 102), rgb(68, 110, 44));"/><path d="M 280 76 L 510 76" fill="none" stroke="#82b366" stroke-miterlimit="10" pointer-events="none" style="stroke: light-dark(rgb(130, 179, 102), rgb(68, 110, 44));"/></g><g><g fill="#000000" font-family="Helvetica" font-weight="bold" text-anchor="middle" font-size="12px" style="fill: light-dark(rgb(0, 0, 0), rgb(255, 255, 255));"><text x="395" y="68">staging クラスタ (Kubernetes)</text></g></g><g data-cell-id="stg-master"><g transform="translate(0.5,0.5)"><rect x="290" y="86" width="200" height="24" fill="none" stroke="none" pointer-events="all"/></g><g><g fill="#000000" font-family="Helvetica" font-size="11px" style="fill: light-dark(rgb(0, 0, 0), rgb(255, 255, 255));"><text x="300" y="102.5">Master x1</text></g></g></g><g data-cell-id="stg-worker"><g transform="translate(0.5,0.5)"><rect x="290" y="114" width="200" height="24" fill="none" stroke="none" pointer-events="all"/></g><g><g fill="#000000" font-family="Helvetica" font-size="11px" style="fill: light-dark(rgb(0, 0, 0), rgb(255, 255, 255));"><text x="300" y="130.5">Worker x3</text></g></g></g></g><g data-cell-id="prod"><g transform="translate(0.5,0.5)"><path d="M 770 76 L 770 61.7 Q 770 50 758.3 50 L 551.7 50 Q 540 50 540 61.7 L 540 76" fill="#d5e8d4" stroke="#82b366" stroke-miterlimit="10" pointer-events="all" style="fill: light-dark(rgb(213, 232, 212), rgb(31, 47, 30)); stroke: light-dark(rgb(130, 179, 102), rgb(68, 110, 44));"/><path d="M 540 76 L 540 198.3 Q 540 210 551.7 210 L 758.3 210 Q 770 210 770 198.3 L 770 76" fill="none" stroke="#82b366" stroke-miterlimit="10" pointer-events="none" style="stroke: light-dark(rgb(130, 179, 102), rgb(68, 110, 44));"/><path d="M 540 76 L 770 76" fill="none" stroke="#82b366" stroke-miterlimit="10" pointer-events="none" style="stroke: light-dark(rgb(130, 179, 102), rgb(68, 110, 44));"/></g><g><g fill="#000000" font-family="Helvetica" font-weight="bold" text-anchor="middle" font-size="12px" style="fill: light-dark(rgb(0, 0, 0), rgb(255, 255, 255));"><text x="655" y="68">prod クラスタ (Kubernetes)</text></g></g><g data-cell-id="prod-master"><g transform="translate(0.5,0.5)"><rect x="550" y="86" width="200" height="24" fill="none" stroke="none" pointer-events="all"/></g><g><g fill="#000000" font-family="Helvetica" font-size="11px" style="fill: light-dark(rgb(0, 0, 0), rgb(255, 255, 255));"><text x="560" y="102.5">Master x3</text></g></g></g><g data-cell-id="prod-worker"><g transform="translate(0.5,0.5)"><rect x="550" y="114" width="200" height="24" fill="none" stroke="none" pointer-events="all"/></g><g><g fill="#000000" font-family="Helvetica" font-size="11px" style="fill: light-dark(rgb(0, 0, 0), rgb(255, 255, 255));"><text x="560" y="130.5">Worker x5+</text></g></g></g></g><g data-cell-id="shared"><g transform="translate(0.5,0.5)"><path d="M 390 266 L 390 251.7 Q 390 240 378.3 240 L 31.7 240 Q 20 240 20 251.7 L 20 266" fill="#fff2cc" stroke="#d6b656" stroke-miterlimit="10" pointer-events="all" style="fill: light-dark(rgb(255, 242, 204), rgb(40, 29, 0)); stroke: light-dark(rgb(214, 182, 86), rgb(109, 81, 0));"/><path d="M 20 266 L 20 458.3 Q 20 470 31.7 470 L 378.3 470 Q 390 470 390 458.3 L 390 266" fill="none" stroke="#d6b656" stroke-miterlimit="10" pointer-events="none" style="stroke: light-dark(rgb(214, 182, 86), rgb(109, 81, 0));"/><path d="M 20 266 L 390 266" fill="none" stroke="#d6b656" stroke-miterlimit="10" pointer-events="none" style="stroke: light-dark(rgb(214, 182, 86), rgb(109, 81, 0));"/></g><g><g fill="#000000" font-family="Helvetica" font-weight="bold" text-anchor="middle" font-size="12px" style="fill: light-dark(rgb(0, 0, 0), rgb(255, 255, 255));"><text x="205" y="258">共有サービス</text></g></g><g data-cell-id="svc-consul"><g transform="translate(0.5,0.5)"><rect x="30" y="276" width="340" height="24" fill="none" stroke="none" pointer-events="all"/></g><g><g fill="#000000" font-family="'Courier New'" font-size="11px" style="fill: light-dark(rgb(0, 0, 0), rgb(255, 255, 255));"><text x="40" y="292.5">Consul</text></g></g></g><g data-cell-id="svc-consul-desc"><g transform="translate(0.5,0.5)"><rect x="30" y="298" width="340" height="20" fill="none" stroke="none" pointer-events="all"/></g><g><g fill="#666666" font-family="Helvetica" font-size="10px" style="fill: light-dark(rgb(102, 102, 102), rgb(149, 149, 149));"><text x="60" y="312">Terraform State 管理</text></g></g></g><g data-cell-id="svc-git"><g transform="translate(0.5,0.5)"><rect x="30" y="326" width="340" height="24" fill="none" stroke="none" pointer-events="all"/></g><g><g fill="#000000" font-family="'Courier New'" font-size="11px" style="fill: light-dark(rgb(0, 0, 0), rgb(255, 255, 255));"><text x="40" y="342.5">GitLab / GitHub Enterprise</text></g></g></g><g data-cell-id="svc-git-desc"><g transform="translate(0.5,0.5)"><rect x="30" y="348" width="340" height="20" fill="none" stroke="none" pointer-events="all"/></g><g><g fill="#666666" font-family="Helvetica" font-size="10px" style="fill: light-dark(rgb(102, 102, 102), rgb(149, 149, 149));"><text x="60" y="362">ソースコード管理</text></g></g></g><g data-cell-id="svc-ceph"><g transform="translate(0.5,0.5)"><rect x="30" y="376" width="340" height="24" fill="none" stroke="none" pointer-events="all"/></g><g><g fill="#000000" font-family="'Courier New'" font-size="11px" style="fill: light-dark(rgb(0, 0, 0), rgb(255, 255, 255));"><text x="40" y="392.5">Ceph</text></g></g></g><g data-cell-id="svc-ceph-desc"><g transform="translate(0.5,0.5)"><rect x="30" y="398" width="340" height="20" fill="none" stroke="none" pointer-events="all"/></g><g><g fill="#666666" font-family="Helvetica" font-size="10px" style="fill: light-dark(rgb(102, 102, 102), rgb(149, 149, 149));"><text x="60" y="412">分散ストレージ</text></g></g></g></g><g data-cell-id="k8s-svc"><g transform="translate(0.5,0.5)"><path d="M 770 266 L 770 251.7 Q 770 240 758.3 240 L 421.7 240 Q 410 240 410 251.7 L 410 266" fill="#fff2cc" stroke="#d6b656" stroke-miterlimit="10" pointer-events="all" style="fill: light-dark(rgb(255, 242, 204), rgb(40, 29, 0)); stroke: light-dark(rgb(214, 182, 86), rgb(109, 81, 0));"/><path d="M 410 266 L 410 458.3 Q 410 470 421.7 470 L 758.3 470 Q 770 470 770 458.3 L 770 266" fill="none" stroke="#d6b656" stroke-miterlimit="10" pointer-events="none" style="stroke: light-dark(rgb(214, 182, 86), rgb(109, 81, 0));"/><path d="M 410 266 L 770 266" fill="none" stroke="#d6b656" stroke-miterlimit="10" pointer-events="none" style="stroke: light-dark(rgb(214, 182, 86), rgb(109, 81, 0));"/></g><g><g fill="#000000" font-family="Helvetica" font-weight="bold" text-anchor="middle" font-size="12px" style="fill: light-dark(rgb(0, 0, 0), rgb(255, 255, 255));"><text x="590" y="258">Kubernetes クラスタ内サービス</text></g></g><g data-cell-id="svc-vault"><g transform="translate(0.5,0.5)"><rect x="420" y="276" width="330" height="24" fill="none" stroke="none" pointer-events="all"/></g><g><g fill="#000000" font-family="'Courier New'" font-size="11px" style="fill: light-dark(rgb(0, 0, 0), rgb(255, 255, 255));"><text x="430" y="292.5">Vault</text></g></g></g><g data-cell-id="svc-vault-desc"><g transform="translate(0.5,0.5)"><rect x="420" y="298" width="330" height="20" fill="none" stroke="none" pointer-events="all"/></g><g><g fill="#666666" font-family="Helvetica" font-size="10px" style="fill: light-dark(rgb(102, 102, 102), rgb(149, 149, 149));"><text x="450" y="312">シークレット管理 — k1s0-system Namespace</text></g></g></g><g data-cell-id="svc-keycloak"><g transform="translate(0.5,0.5)"><rect x="420" y="326" width="330" height="24" fill="none" stroke="none" pointer-events="all"/></g><g><g fill="#000000" font-family="'Courier New'" font-size="11px" style="fill: light-dark(rgb(0, 0, 0), rgb(255, 255, 255));"><text x="430" y="342.5">Keycloak</text></g></g></g><g data-cell-id="svc-keycloak-desc"><g transform="translate(0.5,0.5)"><rect x="420" y="348" width="330" height="20" fill="none" stroke="none" pointer-events="all"/></g><g><g fill="#666666" font-family="Helvetica" font-size="10px" style="fill: light-dark(rgb(102, 102, 102), rgb(149, 149, 149));"><text x="450" y="362">認証基盤 — k1s0-system Namespace</text></g></g></g><g data-cell-id="svc-harbor"><g transform="translate(0.5,0.5)"><rect x="420" y="376" width="330" height="24" fill="none" stroke="none" pointer-events="all"/></g><g><g fill="#000000" font-family="'Courier New'" font-size="11px" style="fill: light-dark(rgb(0, 0, 0), rgb(255, 255, 255));"><text x="430" y="392.5">Harbor</text></g></g></g><g data-cell-id="svc-harbor-desc"><g transform="translate(0.5,0.5)"><rect x="420" y="398" width="330" height="20" fill="none" stroke="none" pointer-events="all"/></g><g><g fill="#666666" font-family="Helvetica" font-size="10px" style="fill: light-dark(rgb(102, 102, 102), rgb(149, 149, 149));"><text x="450" y="412">コンテナレジストリ — harbor Namespace</text></g></g></g></g></g></g></g></g></svg>