<?xml version="1.0" encoding="UTF-8"?>
<!DOCTYPE svg PUBLIC "-//W3C//DTD SVG 1.1//EN" "http://www.w3.org/Graphics/SVG/1.1/DTD/svg11.dtd">
<svg xmlns="http://www.w3.org/2000/svg" style="background: transparent; background-color: transparent; color-scheme: light dark;" xmlns:xlink="http://www.w3.org/1999/xlink" version="1.1" width="832px" height="532px" viewBox="0 0 832 532"><defs/><g><g data-cell-id="0"><g data-cell-id="1"><g data-cell-id="dc"><g transform="translate(0.5,0.5)"><path d="M 810 40 L 810 23.5 Q 810 10 796.5 10 L 23.5 10 Q 10 10 10 23.5 L 10 40" fill="#f5f5f5" stroke="#666666" stroke-miterlimit="10" pointer-events="all" style="fill: light-dark(rgb(245, 245, 245), rgb(26, 26, 26)); stroke: light-dark(rgb(102, 102, 102), rgb(149, 149, 149));"/><path d="M 10 40 L 10 496.5 Q 10 510 23.5 510 L 796.5 510 Q 810 510 810 496.5 L 810 40" fill="none" stroke="#666666" stroke-miterlimit="10" pointer-events="none" style="stroke: light-dark(rgb(102, 102, 102), rgb(149, 149, 149));"/><path d="M 10 40 L 810 40" fill="none" stroke="#666666" stroke-miterlimit="10" pointer-events="none" style="stroke: light-dark(rgb(102, 102, 102), rgb(149, 149, 149));"/></g><g><g fill="#000000" font-family="Helvetica" font-weight="bold" text-anchor="middle" font-size="14px" style="fill: light-dark(rgb(0, 0, 0), rgb(255, 255, 255));"><text x="410" y="31">オンプレミス データセンター</text></g></g><g data-cell-id="dev"><g transform="translate(0.5,0.5)"><path d="M 260 86 L 260 71.7 Q 260 60 248.3 60 L 41.7 60 Q 30 60 30 71.7 L 30 86" fill="#d5e8d4" stroke="#82b366" stroke-miterlimit="10" pointer-events="all" style="fill: light-dark(rgb(213, 232, 212), rgb(31, 47, 30)); stroke: light-dark(rgb(130, 179, 102), rgb(68, 110, 44));"/><path d="M 30 86 L 30 208.3 Q 30 220 41.7 220 L 248.3 220 Q 260 220 260 208.3 L 260 86" fill="none" stroke="#82b366" stroke-miterlimit="10" pointer-events="none" style="stroke: light-dark(rgb(130, 179, 102), rgb(68, 110, 44));"/><path d="M 30 86 L 260 86" fill="none" stroke="#82b366" stroke-miterlimit="10" pointer-events="none" style="stroke: light-dark(rgb(130, 179, 102), rgb(68, 110, 44));"/></g><g><g fill="#000000" font-family="Helvetica" font-weight="bold" text-anchor="middle" font-size="12px" style="fill: light-dark(rgb(0, 0, 0), rgb(255, 255, 255));"><text x="145" y="78">dev クラスタ (Kubernetes)</text></g></g><g data-cell-id="dev-master"><g transform="translate(0.5,0.5)"><rect x="40" y="96" width="200" height="24" fill="none" stroke="none" pointer-events="all"/></g><g><g fill="#000000" font-family="Helvetica" font-size="11px" style="fill: light-dark(rgb(0, 0, 0), rgb(255, 255, 255));"><text x="50" y="112.5">Master x1</text></g></g></g><g data-cell-id="dev-worker"><g transform="translate(0.5,0.5)"><rect x="40" y="124" width="200" height="24" fill="none" stroke="none" pointer-events="all"/></g><g><g fill="#000000" font-family="Helvetica" font-size="11px" style="fill: light-dark(rgb(0, 0, 0), rgb(255, 255, 255));"><text x="50" y="140.5">Worker x2</text></g></g></g></g><g data-cell-id="stg"><g transform="translate(0.5,0.5)"><path d="M 520 86 L 520 71.7 Q 520 60 508.3 60 L 301.7 60 Q 290 60 290 71.7 L 290 86" fill="#d5e8d4" stroke="#82b366" stroke-miterlimit="10" pointer-events="all" style="fill: light-dark(rgb(213, 232, 212), rgb(31, 47, 30)); stroke: light-dark(rgb(130, 179, 102), rgb(68, 110, 44));"/><path d="M 290 86 L 290 208.3 Q 290 220 301.7 220 L 508.3 220 Q 520 220 520 208.3 L 520 86" fill="none" stroke="#82b366" stroke-miterlimit="10" pointer-events="none" style="stroke: light-dark(rgb(130, 179, 102), rgb(68, 110, 44));"/><path d="M 290 86 L 520 86" fill="none" stroke="#82b366" stroke-miterlimit="10" pointer-events="none" style="stroke: light-dark(rgb(130, 179, 102), rgb(68, 110, 44));"/></g><g><g fill="#000000" font-family="Helvetica" font-weight="bold" text-anchor="middle" font-size="12px" style="fill: light-dark(rgb(0, 0, 0), rgb(255, 255, 255));"><text x="405" y="78">staging クラスタ (Kubernetes)</text></g></g><g data-cell-id="stg-master"><g transform="translate(0.5,0.5)"><rect x="300" y="96" width="200" height="24" fill="none" stroke="none" pointer-events="all"/></g><g><g fill="#000000" font-family="Helvetica" font-size="11px" style="fill: light-dark(rgb(0, 0, 0), rgb(255, 255, 255));"><text x="310" y="112.5">Master x1</text></g></g></g><g data-cell-id="stg-worker"><g transform="translate(0.5,0.5)"><rect x="300" y="124" width="200" height="24" fill="none" stroke="none" pointer-events="all"/></g><g><g fill="#000000" font-family="Helvetica" font-size="11px" style="fill: light-dark(rgb(0, 0, 0), rgb(255, 255, 255));"><text x="310" y="140.5">Worker x3</text></g></g></g></g><g data-cell-id="prod"><g transform="translate(0.5,0.5)"><path d="M 780 86 L 780 71.7 Q 780 60 768.3 60 L 561.7 60 Q 550 60 550 71.7 L 550 86" fill="#d5e8d4" stroke="#82b366" stroke-miterlimit="10" pointer-events="all" style="fill: light-dark(rgb(213, 232, 212), rgb(31, 47, 30)); stroke: light-dark(rgb(130, 179, 102), rgb(68, 110, 44));"/><path d="M 550 86 L 550 208.3 Q 550 220 561.7 220 L 768.3 220 Q 780 220 780 208.3 L 780 86" fill="none" stroke="#82b366" stroke-miterlimit="10" pointer-events="none" style="stroke: light-dark(rgb(130, 179, 102), rgb(68, 110, 44));"/><path d="M 550 86 L 780 86" fill="none" stroke="#82b366" stroke-miterlimit="10" pointer-events="none" style="stroke: light-dark(rgb(130, 179, 102), rgb(68, 110, 44));"/></g><g><g fill="#000000" font-family="Helvetica" font-weight="bold" text-anchor="middle" font-size="12px" style="fill: light-dark(rgb(0, 0, 0), rgb(255, 255, 255));"><text x="665" y="78">prod クラスタ (Kubernetes)</text></g></g><g data-cell-id="prod-master"><g transform="translate(0.5,0.5)"><rect x="560" y="96" width="200" height="24" fill="none" stroke="none" pointer-events="all"/></g><g><g fill="#000000" font-family="Helvetica" font-size="11px" style="fill: light-dark(rgb(0, 0, 0), rgb(255, 255, 255));"><text x="570" y="112.5">Master x3</text></g></g></g><g data-cell-id="prod-worker"><g transform="translate(0.5,0.5)"><rect x="560" y="124" width="200" height="24" fill="none" stroke="none" pointer-events="all"/></g><g><g fill="#000000" font-family="Helvetica" font-size="11px" style="fill: light-dark(rgb(0, 0, 0), rgb(255, 255, 255));"><text x="570" y="140.5">Worker x5+</text></g></g></g></g><g data-cell-id="shared"><g transform="translate(0.5,0.5)"><path d="M 400 276 L 400 261.7 Q 400 250 388.3 250 L 41.7 250 Q 30 250 30 261.7 L 30 276" fill="#fff2cc" stroke="#d6b656" stroke-miterlimit="10" pointer-events="all" style="fill: light-dark(rgb(255, 242, 204), rgb(40, 29, 0)); stroke: light-dark(rgb(214, 182, 86), rgb(109, 81, 0));"/><path d="M 30 276 L 30 468.3 Q 30 480 41.7 480 L 388.3 480 Q 400 480 400 468.3 L 400 276" fill="none" stroke="#d6b656" stroke-miterlimit="10" pointer-events="none" style="stroke: light-dark(rgb(214, 182, 86), rgb(109, 81, 0));"/><path d="M 30 276 L 400 276" fill="none" stroke="#d6b656" stroke-miterlimit="10" pointer-events="none" style="stroke: light-dark(rgb(214, 182, 86), rgb(109, 81, 0));"/></g><g><g fill="#000000" font-family="Helvetica" font-weight="bold" text-anchor="middle" font-size="12px" style="fill: light-dark(rgb(0, 0, 0), rgb(255, 255, 255));"><text x="215" y="268">共有サービス</text></g></g><g data-cell-id="svc-consul"><g transform="translate(0.5,0.5)"><rect x="40" y="286" width="340" height="24" fill="none" stroke="none" pointer-events="all"/></g><g><g fill="#000000" font-family="'Courier New'" font-size="11px" style="fill: light-dark(rgb(0, 0, 0), rgb(255, 255, 255));"><text x="50" y="302.5">Consul</text></g></g></g><g data-cell-id="svc-consul-desc"><g transform="translate(0.5,0.5)"><rect x="40" y="308" width="340" height="20" fill="none" stroke="none" pointer-events="all"/></g><g><g fill="#666666" font-family="Helvetica" font-size="10px" style="fill: light-dark(rgb(102, 102, 102), rgb(149, 149, 149));"><text x="70" y="322">Terraform State 管理</text></g></g></g><g data-cell-id="svc-git"><g transform="translate(0.5,0.5)"><rect x="40" y="336" width="340" height="24" fill="none" stroke="none" pointer-events="all"/></g><g><g fill="#000000" font-family="'Courier New'" font-size="11px" style="fill: light-dark(rgb(0, 0, 0), rgb(255, 255, 255));"><text x="50" y="352.5">GitLab / GitHub Enterprise</text></g></g></g><g data-cell-id="svc-git-desc"><g transform="translate(0.5,0.5)"><rect x="40" y="358" width="340" height="20" fill="none" stroke="none" pointer-events="all"/></g><g><g fill="#666666" font-family="Helvetica" font-size="10px" style="fill: light-dark(rgb(102, 102, 102), rgb(149, 149, 149));"><text x="70" y="372">ソースコード管理</text></g></g></g><g data-cell-id="svc-ceph"><g transform="translate(0.5,0.5)"><rect x="40" y="386" width="340" height="24" fill="none" stroke="none" pointer-events="all"/></g><g><g fill="#000000" font-family="'Courier New'" font-size="11px" style="fill: light-dark(rgb(0, 0, 0), rgb(255, 255, 255));"><text x="50" y="402.5">Ceph</text></g></g></g><g data-cell-id="svc-ceph-desc"><g transform="translate(0.5,0.5)"><rect x="40" y="408" width="340" height="20" fill="none" stroke="none" pointer-events="all"/></g><g><g fill="#666666" font-family="Helvetica" font-size="10px" style="fill: light-dark(rgb(102, 102, 102), rgb(149, 149, 149));"><text x="70" y="422">分散ストレージ</text></g></g></g></g><g data-cell-id="k8s-svc"><g transform="translate(0.5,0.5)"><path d="M 780 276 L 780 261.7 Q 780 250 768.3 250 L 431.7 250 Q 420 250 420 261.7 L 420 276" fill="#fff2cc" stroke="#d6b656" stroke-miterlimit="10" pointer-events="all" style="fill: light-dark(rgb(255, 242, 204), rgb(40, 29, 0)); stroke: light-dark(rgb(214, 182, 86), rgb(109, 81, 0));"/><path d="M 420 276 L 420 468.3 Q 420 480 431.7 480 L 768.3 480 Q 780 480 780 468.3 L 780 276" fill="none" stroke="#d6b656" stroke-miterlimit="10" pointer-events="none" style="stroke: light-dark(rgb(214, 182, 86), rgb(109, 81, 0));"/><path d="M 420 276 L 780 276" fill="none" stroke="#d6b656" stroke-miterlimit="10" pointer-events="none" style="stroke: light-dark(rgb(214, 182, 86), rgb(109, 81, 0));"/></g><g><g fill="#000000" font-family="Helvetica" font-weight="bold" text-anchor="middle" font-size="12px" style="fill: light-dark(rgb(0, 0, 0), rgb(255, 255, 255));"><text x="600" y="268">Kubernetes クラスタ内サービス</text></g></g><g data-cell-id="svc-vault"><g transform="translate(0.5,0.5)"><rect x="430" y="286" width="330" height="24" fill="none" stroke="none" pointer-events="all"/></g><g><g fill="#000000" font-family="'Courier New'" font-size="11px" style="fill: light-dark(rgb(0, 0, 0), rgb(255, 255, 255));"><text x="440" y="302.5">Vault</text></g></g></g><g data-cell-id="svc-vault-desc"><g transform="translate(0.5,0.5)"><rect x="430" y="308" width="330" height="20" fill="none" stroke="none" pointer-events="all"/></g><g><g fill="#666666" font-family="Helvetica" font-size="10px" style="fill: light-dark(rgb(102, 102, 102), rgb(149, 149, 149));"><text x="460" y="322">シークレット管理 — k1s0-system Namespace</text></g></g></g><g data-cell-id="svc-keycloak"><g transform="translate(0.5,0.5)"><rect x="430" y="336" width="330" height="24" fill="none" stroke="none" pointer-events="all"/></g><g><g fill="#000000" font-family="'Courier New'" font-size="11px" style="fill: light-dark(rgb(0, 0, 0), rgb(255, 255, 255));"><text x="440" y="352.5">Keycloak</text></g></g></g><g data-cell-id="svc-keycloak-desc"><g transform="translate(0.5,0.5)"><rect x="430" y="358" width="330" height="20" fill="none" stroke="none" pointer-events="all"/></g><g><g fill="#666666" font-family="Helvetica" font-size="10px" style="fill: light-dark(rgb(102, 102, 102), rgb(149, 149, 149));"><text x="460" y="372">認証基盤 — k1s0-system Namespace</text></g></g></g><g data-cell-id="svc-harbor"><g transform="translate(0.5,0.5)"><rect x="430" y="386" width="330" height="24" fill="none" stroke="none" pointer-events="all"/></g><g><g fill="#000000" font-family="'Courier New'" font-size="11px" style="fill: light-dark(rgb(0, 0, 0), rgb(255, 255, 255));"><text x="440" y="402.5">Harbor</text></g></g></g><g data-cell-id="svc-harbor-desc"><g transform="translate(0.5,0.5)"><rect x="430" y="408" width="330" height="20" fill="none" stroke="none" pointer-events="all"/></g><g><g fill="#666666" font-family="Helvetica" font-size="10px" style="fill: light-dark(rgb(102, 102, 102), rgb(149, 149, 149));"><text x="460" y="422">コンテナレジストリ — harbor Namespace</text></g></g></g></g></g></g></g></g></svg>